<?xml version="1.0" encoding="UTF-8"?>
<svg width="340px" height="150px" viewBox="0 0 340 150" version="1.1" xmlns="http://www.w3.org/2000/svg" xmlns:xlink="http://www.w3.org/1999/xlink">
    <!-- Generator: Sketch 41 (35326) - http://www.bohemiancoding.com/sketch -->
    <title>uedog</title>
    <desc>Created with Sketch.</desc>
    <defs></defs>
    <g id="Page-1" stroke="none" stroke-width="1" fill="none" fill-rule="evenodd">
        <g id="uedog" fill="#2B1616">
            <path d="M0,0 L60,0 L60,90.0091609 C60,106.572644 46.5721855,120 30,120 C13.4314575,120 0,106.56929 0,90.0091609 L0,0 Z M20,0 L40,0 L40,89.9999362 C40,95.5228189 35.5240618,100 30,100 C24.4771525,100 20,95.5252671 20,89.9999362 L20,0 Z" id="Combined-Shape"></path>
            <path d="M140,0 L170,0 C186.568542,0 200,13.4307101 200,29.9908391 L200,90.0091609 C200,106.572644 186.572185,120 170,120 L140,120 L140,0 Z M160,20 L170,20 C175.522847,20 180,24.4725688 180,29.9904648 L180,90.0095352 C180,95.5271165 175.524062,100 170,100 L160,100 L160,20 Z" id="Combined-Shape"></path>
            <g id="Group-5" transform="translate(70.000000, 60.000000)">
                <g id="Group-3">
                    <path d="M60,0 C60,16.5685425 46.5685425,30 30,30 C13.4314575,30 0,16.5685425 0,0 L60,0 Z" id="Combined-Shape" transform="translate(30.000000, 15.000000) scale(1, -1) translate(-30.000000, -15.000000) "></path>
                    <path d="M40,30 L60,30 C60,46.5685425 46.5685425,60 30,60 C13.4314575,60 0,46.5685425 0,30 L20,30 C20,41.045695 28.954305,50 40,50 C51.045695,50 60,41.045695 60,30 L40,30 Z" id="Combined-Shape"></path>
                </g>
            </g>
            <path d="M240,120 C256.568542,120 270,106.568542 270,90 C270,73.4314575 256.568542,60 240,60 C223.431458,60 210,73.4314575 210,90 C210,106.568542 223.431458,120 240,120 Z M240,100 C245.522847,100 250,95.5228475 250,90 C250,84.4771525 245.522847,80 240,80 C234.477153,80 230,84.4771525 230,90 C230,95.5228475 234.477153,100 240,100 Z" id="Combined-Shape"></path>
            <path d="M315.512609,119.494613 C313.725672,119.8265 311.883097,120 310,120 C293.431458,120 280,106.568542 280,90 C280,73.4314575 293.431458,60 310,60 C326.568542,60 340,73.4314575 340,90 C340,91.8830973 339.8265,93.7256715 339.494613,95.512609 C337.45777,86.6275741 329.502862,80 320,80 C308.954305,80 300,88.954305 300,100 C300,109.502862 306.627574,117.45777 315.512609,119.494613 Z" id="Combined-Shape"></path>
            <g id="Group-4" transform="translate(310.000000, 135.000000) scale(-1, 1) translate(-310.000000, -135.000000) translate(280.000000, 120.000000)">
                <path d="M40,0 L60,0 C60,16.5685425 46.5685425,30 30,30 C13.4314575,30 0,16.5685425 0,0 L20,0 C20,11.045695 28.954305,20 40,20 C51.045695,20 60,11.045695 60,0 L40,0 Z" id="Combined-Shape"></path>
            </g>
            <polygon id="Rectangle-8" points="320 70 340 90 340 120 320 120"></polygon>
        </g>
    </g>
</svg>